<?xml version="1.0" standalone="no"?>
<!DOCTYPE svg PUBLIC "-//W3C//DTD SVG 20010904//EN"
 "http://www.w3.org/TR/2001/REC-SVG-20010904/DTD/svg10.dtd">
<svg version="1.0" xmlns="http://www.w3.org/2000/svg"
 width="164.000000pt" height="164.000000pt" viewBox="0 0 164.000000 164.000000"
 preserveAspectRatio="xMidYMid meet">
<metadata>
Created by potrace 1.11, written by Peter Selinger 2001-2013
</metadata>
<g transform="translate(0.000000,164.000000) scale(0.100000,-0.100000)"
fill="#000000" stroke="none">
<path d="M250 1169 c-103 -36 -173 -99 -218 -198 -38 -81 -40 -201 -5 -289 34
-84 98 -153 179 -193 55 -27 77 -32 156 -36 l93 -3 -40 17 c-76 34 -104 53
-160 107 -92 90 -128 199 -105 312 16 75 41 125 92 180 37 40 144 104 175 104
7 0 13 5 13 11 0 16 -123 8 -180 -12z"/>
<path d="M495 1170 c28 -11 67 -34 88 -51 43 -35 102 -117 92 -127 -3 -4 -27
-14 -53 -23 l-47 -16 118 -58 c65 -31 120 -55 122 -53 8 8 104 222 101 226 -2
1 -22 -5 -45 -14 l-41 -16 -51 46 c-77 69 -146 98 -249 102 l-85 5 50 -21z"/>
<path d="M1210 1179 c107 -49 136 -66 175 -104 134 -133 145 -327 27 -482 -30
-40 -131 -109 -172 -118 -50 -11 -42 -22 18 -24 278 -10 463 288 337 540 -43
83 -141 164 -226 186 -13 3 -60 7 -104 9 -66 3 -75 2 -55 -7z"/>
<path d="M811 783 c-5 -10 -21 -47 -36 -83 -15 -36 -34 -79 -41 -97 l-14 -32
28 9 c15 4 35 11 44 15 13 5 30 -5 60 -34 65 -65 150 -102 245 -107 l78 -5
-50 25 c-61 30 -103 67 -139 120 -30 45 -33 66 -8 66 9 1 28 7 41 14 22 12 19
15 -82 69 -59 32 -109 57 -111 57 -3 0 -9 -8 -15 -17z"/>
</g>
</svg>
